# xmcd
#
# Track frame offsets:
#	180
#	14007
#	27115
#	39652
#	48940
#	62382
#	76332
#	87220
#	97435
#	109830
#	123080
#	134100
#	146910
#	159212
#	171430
#	184717
#	197247
#	211565
#	224627
#	235567
#	247775
#	263752
#
# Disc length: 3652 seconds
# Revision: 4
# Processed by: cddbd v1.5.2PL0 Copyright (c) Steve Scherf et al.
# Submitted via: dBpowerAMP V12.0
#
DISCID=340e4216
DTITLE=Various Artist - The Fifties: Juke Joint Blues [Ace CDCH 216]
DYEAR=1900
DGENRE=Blues
TTITLE0=B.B. King - Three O'Clock Blues
TTITLE1=Elmore James - Long Tall Woman
TTITLE2=Boyd Gilmore - Ramblin' On My Mind
TTITLE3=Baby Face Turner - Gonna Let Your Go
TTITLE4=Bobby Bland and Junior Parker - Love My Baby
TTITLE5=Howlin' Wolf - Riding In The Moonlight
TTITLE6=Dudlow and Peck Curtis - 44 Blues
TTITLE7=Sunny Blair - Step Back Baby
TTITLE8=James Reed - This Is The End
TTITLE9=Lightnin' Hopkins - Jake Head Boogie
TTITLE10=Little George Smith - Down In New Orleans (aka Hey Mr. Porter)
TTITLE11=Dixie Blues Boys - Monte Carlo
TTITLE12=Floyd Dixon - Doin' The Town
TTITLE13=Roscoe Gordon - Just In From Texas
TTITLE14=Jimmy Nelson - Big Mouth
TTITLE15=Mercy Dee - Have You Ever
TTITLE16=Walter Robertson - Sputterin' Blues
TTITLE17=Johnny Fuller - Prowling Blues
TTITLE18=Kid Tanner - Going To New Orleans
TTITLE19=Joe Hill Louis - Good Morning Little Angel
TTITLE20=Jimmy McCracklin - The Panic's On
TTITLE21=Walter Horton - What's The Matter (With You)
EXTD=
EXTT0=
EXTT1=
EXTT2=
EXTT3=
EXTT4=
EXTT5=
EXTT6=
EXTT7=
EXTT8=
EXTT9=
EXTT10=
EXTT11=
EXTT12=
EXTT13=
EXTT14=
EXTT15=
EXTT16=
EXTT17=
EXTT18=
EXTT19=
EXTT20=
EXTT21=
PLAYORDER=
